<svg width="158" height="22" fill="none" xmlns="http://www.w3.org/2000/svg"><path fill="#E0E0E0" d="M0 0h158v22H0z"/><path d="M-704-392a2 2 0 0 1 2-2h1876c1.1 0 2 .895 2 2v968c0 1.105-.9 2-2 2H-702a2 2 0 0 1-2-2v-968z" fill="#E9F5F5"/><path d="M-702-393h1876v-2H-702v2zm1877 1v968h2v-968h-2zm-1 969H-702v2h1876v-2zm-1877-1v-968h-2v968h2zm1 1a1 1 0 0 1-1-1h-2a3 3 0 0 0 3 3v-2zm1877-1c0 .552-.45 1-1 1v2c1.66 0 3-1.343 3-3h-2zm-1-969c.55 0 1 .448 1 1h2c0-1.657-1.34-3-3-3v2zm-1876-2a3 3 0 0 0-3 3h2a1 1 0 0 1 1-1v-2z" fill="#000" fill-opacity=".1"/><mask id="a" fill="#fff"><path d="M-604-12H762v46H-604v-46z"/></mask><path d="M-604-12H762v46H-604v-46z" fill="#fff"/><path d="M762 33H-604v2H762v-2z" fill="#DDD" mask="url(#a)"/><path d="M24.85 10.999V11h3.878c0-6.078-4.922-11-10.997-11-3.97 0-7.434 2.107-9.37 5.255V0H4.48L.6 3.883h3.88v18.114h3.88V16.74A10.937 10.937 0 0 1 6.731 11a9.01 9.01 0 0 1 2.255-5.967l.105-.116a8.681 8.681 0 0 1 .745-.735c.236-.204.48-.4.737-.581.021-.014.04-.03.06-.046.287-.199.586-.383.895-.548l.038-.019c.277-.147.567-.278.862-.395.09-.036.178-.067.268-.1a8.519 8.519 0 0 1 1.02-.305 9.55 9.55 0 0 1 .714-.134c.102-.016.204-.034.31-.048.345-.04.693-.065 1.047-.065a9.12 9.12 0 0 1 1.544.138c.064.012.132.015.196.03.087.017.17.042.256.06a8.99 8.99 0 0 1 2.132.764l.009.005c.244.125.483.261.714.41l.058.042c.21.137.42.28.619.435.019.014.034.029.051.041.2.157.394.32.58.492.017.014.03.033.046.047.186.173.365.352.533.542.019.022.036.046.054.066.165.186.32.375.47.575.062.083.117.175.178.262.095.14.197.276.286.421.091.15.169.308.254.462.047.088.1.175.145.268a7.6 7.6 0 0 1 .233.531c.034.079.073.154.103.236.095.254.181.513.254.778l.01.025a9.11 9.11 0 0 1 .3 1.698c.026.24.038.483.038.73z" fill="#686868"/><path fill-rule="evenodd" clip-rule="evenodd" d="M42.925 0v14.233h4.528v3.236h-4.529V22h-3.877v-4.531H24.81L42.279 0h.646zm-10.35 14.232h6.473V7.768l-6.474 6.464z" fill="#686868"/><path d="M24.809 17.466l3.502-3.502c.266-.946.416-1.937.416-2.966H24.85a7.117 7.117 0 0 1-7.117 7.116 7.114 7.114 0 0 1-7.116-7.116c0-3.93 3.18-7.118 7.116-7.118a7.12 7.12 0 0 1 7.08 6.385c-.374-4.656-4.264-8.324-9.024-8.324a9.055 9.055 0 0 0-9.057 9.057c0 6.073 4.923 11 11 11 3.654 0 6.881-1.788 8.88-4.531H24.81z" fill="#FF7800"/><path d="M61.167 15.166c-1.566 2.532-3.775 4.749-6.63 6.652l-1.564-1.496c6.292-3.544 9.53-9.827 9.713-18.85V.16h2.095v1.312c0 .307-.008.607-.023.897h.023c.06 2.702.445 4.995 1.15 6.883 1.35 3.928 4.235 7.71 8.654 11.347l-1.75 1.265a78.3 78.3 0 0 1-2.876-2.762c-3.023-3.084-5.095-6.49-6.215-10.219-.613 2.286-1.472 4.381-2.577 6.283zm20.093-9.92V3.22h7.574V.137h2.186V3.22h9.46c.169 0 .308.03.415.091.245.154.368.507.368 1.06a450.236 450.236 0 0 1-.116 8.815c-.138 4.311-.921 6.935-2.347 7.872-1.304.874-3.75.797-7.341-.23l-.092-2.44c3.238 1.043 5.316 1.242 6.237.598.383-.276.721-.836 1.013-1.68.276-.905.438-2.379.484-4.419.092-4.787.084-7.28-.023-7.48-.062-.106-.145-.161-.253-.161H90.93c-.184 2.547-.782 5.186-1.796 7.917-1.534 3.452-3.867 6.26-6.997 8.424l-1.633-1.543c5.125-3.038 7.872-7.971 8.24-14.8h-7.483z" fill="#686868"/><path fill-rule="evenodd" clip-rule="evenodd" d="M109.619 5.525l-1.68-1.243c2.471-1.335 4.097-2.678 4.88-4.028l1.817.115a2.244 2.244 0 0 1-.16.345 45.772 45.772 0 0 0 3.291 2.233l-1.358 1.496a35.289 35.289 0 0 1-2.808-2.302c-.859 1.059-2.187 2.186-3.982 3.384zm2.234 6.352h-3.222V10.06h3.222V7.642h-2.578V5.824h7.296v1.818h-2.808v2.416h3.452v1.819h-3.452v6.674c1.642-.368 2.724-.622 3.246-.76l.322 1.865c-4.158.92-7.135 1.474-8.93 1.657l-.185-1.887c1.12-.138 2.333-.308 3.637-.507v-7.042zm-.921 6.053c-.046-1.028-.27-2.639-.668-4.833l-1.795.207c.368 1.657.583 3.222.644 4.695l1.819-.069zm6.076-4.626c-.245 1.458-.515 2.716-.807 3.775l-1.633-.53c.43-1.41.691-2.63.782-3.658l1.658.413zm12.291.76l-1.013-1.543c-.844.66-2.01 1.397-3.499 2.21-.291-.92-.484-2.056-.576-3.407h3.683c.384 0 .583-.199.599-.598V1.13c0-.369-.191-.553-.574-.553h-8.977c-.368 0-.552.184-.552.553v18.595a79.56 79.56 0 0 0-1.681.3l.438 1.887c2.823-.476 5.186-1.097 7.089-1.865l-.553-1.84c-.936.383-2.064.743-3.384 1.08v-7.963h2.003c.184 3.27 1.182 5.93 2.993 7.987.184.369 1.15 1.244 2.899 2.624l1.657-1.265c-1.887-1.289-3.323-2.7-4.305-4.235 1.488-.798 2.74-1.589 3.753-2.37zm-2.716-8.978V2.831c-.016-.29-.168-.437-.46-.437h-5.364c-.307.015-.46.168-.46.46v2.232h6.284zm-6.284 4.42V6.905h6.284v2.302c0 .2-.1.299-.3.299h-5.984zm17.032-2.166c1.612-1.428 3.032-3.614 4.259-6.56l-1.865-.714c-.875 2.394-2.24 4.427-4.097 6.1l1.703 1.174zm-1.862 5.478l1.633 1.289c.475-.415.99-.905 1.543-1.473v9.183h2.002V10.032a34.101 34.101 0 0 0 1.773-3.199l-1.819-.828c-1.12 2.624-2.83 4.895-5.132 6.813zm7.824-4.166V6.649h14.108v2.003h-3.682v10.587c-.016.89-.369 1.565-1.059 2.025-1.274.829-3.59.752-6.951-.23l.046-2.094c1.197.352 2.372.629 3.522.828 1.029.123 1.771-.008 2.232-.391.138-.123.208-.346.208-.668V8.652h-8.424zm13.188-5.524V1.125H144.03v2.003h12.451z" fill="#686868"/></svg>